<svg xmlns="http://www.w3.org/2000/svg" fill-rule="evenodd" stroke-linecap="round" stroke-linejoin="round" stroke-miterlimit="1.5" clip-rule="evenodd" viewBox="0 0 413.5 424.5"><g transform="matrix(.95077 0 0 .9689 51.29 -47.094)"><path fill="#3f3d56" fill-rule="nonzero" d="M535.073 577.067H226.717v313.042s156.38 77.418 308.356 0V577.067z"/><path fill="none" stroke="#feefc1" stroke-width="13.71" d="M124.283 351.466s-1.786 40.464 52.935 40.464c54.721 0 54.705-42.955 54.356-43.647" transform="matrix(1.72441 -.03524 -.02516 -1.18571 82.483 1275.04)"/><path fill="none" stroke="#feefc1" stroke-width="9.5" d="M152.825 283.179v51.423" transform="matrix(2.14971 0 0 2.10949 13.836 44.95)"/><path fill="none" stroke="#feefc1" stroke-width="9.5" d="M152.825 283.179v51.423" transform="matrix(2.14971 0 0 2.10949 91.04 44.95)"/><ellipse cx="378.692" cy="578.167" fill="#3f3d56" rx="151.975" ry="23.127"/><ellipse cx="378.692" cy="578.167" fill-opacity=".1" rx="151.975" ry="23.127"/><path fill="#54507d" fill-rule="nonzero" d="M555.354 332.333c-38.339 141.722-169.656 229.494-169.656 229.494S316.539 419.822 354.877 278.1C393.216 136.379 524.533 48.607 524.533 48.607s69.159 142.005 30.821 283.726z"/><path fill="#3aad62" fill-rule="nonzero" d="M206.581 332.333c38.339 141.722 169.656 229.494 169.656 229.494s69.159-142.005 30.821-283.726C368.719 136.379 237.402 48.607 237.402 48.607s-69.159 142.005-30.821 283.726z"/><path fill="#3f3d56" fill-rule="nonzero" d="M262.917 301.876c105.201 102.409 118.05 259.835 118.05 259.835S223.252 553.1 118.051 450.69C12.85 348.28 0 190.855 0 190.855s157.716 8.612 262.917 111.02zM499.018 301.876C393.817 404.285 380.967 561.71 380.967 561.71s157.716-8.611 262.917-111.02c105.201-102.41 118.05-259.836 118.05-259.836s-157.715 8.612-262.916 111.02z"/></g></svg>